<mxfile host="app.diagrams.net" modified="2024-01-20T07:51:05.125Z" agent="Mozilla/5.0 (Macintosh; Intel Mac OS X 10_15_7) AppleWebKit/537.36 (KHTML, like Gecko) Chrome/120.0.0.0 Safari/537.36" version="22.1.15" etag="17dmnRT12HW4k3BT6T5Q" type="github">
  <diagram name="第 1 页" id="wghSfutkFv3LaL1H-4do">
    <mxGraphModel>
      <root>
        <mxCell id="0" />
        <mxCell id="1" parent="0" />
      </root>
    </mxGraphModel>
  </diagram>
</mxfile>
